G75*
G70*
%OFA0B0*%
%FSLAX24Y24*%
%IPPOS*%
%LPD*%
%AMOC8*
5,1,8,0,0,1.08239X$1,22.5*
%
%ADD10C,0.0000*%
%ADD11C,0.0060*%
%ADD12C,0.0050*%
%ADD13C,0.0100*%
%ADD14C,0.0020*%
%ADD15C,0.0040*%
%ADD16R,0.0350X0.0500*%
%ADD17C,0.0080*%
%ADD18R,0.0400X0.4000*%
%ADD19C,0.0030*%
D10*
X000150Y000544D02*
X000544Y000150D01*
X018654Y000150D01*
X019048Y000544D01*
X019048Y015504D01*
X018654Y015898D01*
X000544Y015898D01*
X000150Y015504D01*
X000150Y000544D01*
X000559Y001150D02*
X000561Y001198D01*
X000567Y001246D01*
X000577Y001293D01*
X000590Y001339D01*
X000608Y001384D01*
X000628Y001428D01*
X000653Y001470D01*
X000681Y001509D01*
X000711Y001546D01*
X000745Y001580D01*
X000782Y001612D01*
X000820Y001641D01*
X000861Y001666D01*
X000904Y001688D01*
X000949Y001706D01*
X000995Y001720D01*
X001042Y001731D01*
X001090Y001738D01*
X001138Y001741D01*
X001186Y001740D01*
X001234Y001735D01*
X001282Y001726D01*
X001328Y001714D01*
X001373Y001697D01*
X001417Y001677D01*
X001459Y001654D01*
X001499Y001627D01*
X001537Y001597D01*
X001572Y001564D01*
X001604Y001528D01*
X001634Y001490D01*
X001660Y001449D01*
X001682Y001406D01*
X001702Y001362D01*
X001717Y001317D01*
X001729Y001270D01*
X001737Y001222D01*
X001741Y001174D01*
X001741Y001126D01*
X001737Y001078D01*
X001729Y001030D01*
X001717Y000983D01*
X001702Y000938D01*
X001682Y000894D01*
X001660Y000851D01*
X001634Y000810D01*
X001604Y000772D01*
X001572Y000736D01*
X001537Y000703D01*
X001499Y000673D01*
X001459Y000646D01*
X001417Y000623D01*
X001373Y000603D01*
X001328Y000586D01*
X001282Y000574D01*
X001234Y000565D01*
X001186Y000560D01*
X001138Y000559D01*
X001090Y000562D01*
X001042Y000569D01*
X000995Y000580D01*
X000949Y000594D01*
X000904Y000612D01*
X000861Y000634D01*
X000820Y000659D01*
X000782Y000688D01*
X000745Y000720D01*
X000711Y000754D01*
X000681Y000791D01*
X000653Y000830D01*
X000628Y000872D01*
X000608Y000916D01*
X000590Y000961D01*
X000577Y001007D01*
X000567Y001054D01*
X000561Y001102D01*
X000559Y001150D01*
X000559Y014912D02*
X000561Y014960D01*
X000567Y015008D01*
X000577Y015055D01*
X000590Y015101D01*
X000608Y015146D01*
X000628Y015190D01*
X000653Y015232D01*
X000681Y015271D01*
X000711Y015308D01*
X000745Y015342D01*
X000782Y015374D01*
X000820Y015403D01*
X000861Y015428D01*
X000904Y015450D01*
X000949Y015468D01*
X000995Y015482D01*
X001042Y015493D01*
X001090Y015500D01*
X001138Y015503D01*
X001186Y015502D01*
X001234Y015497D01*
X001282Y015488D01*
X001328Y015476D01*
X001373Y015459D01*
X001417Y015439D01*
X001459Y015416D01*
X001499Y015389D01*
X001537Y015359D01*
X001572Y015326D01*
X001604Y015290D01*
X001634Y015252D01*
X001660Y015211D01*
X001682Y015168D01*
X001702Y015124D01*
X001717Y015079D01*
X001729Y015032D01*
X001737Y014984D01*
X001741Y014936D01*
X001741Y014888D01*
X001737Y014840D01*
X001729Y014792D01*
X001717Y014745D01*
X001702Y014700D01*
X001682Y014656D01*
X001660Y014613D01*
X001634Y014572D01*
X001604Y014534D01*
X001572Y014498D01*
X001537Y014465D01*
X001499Y014435D01*
X001459Y014408D01*
X001417Y014385D01*
X001373Y014365D01*
X001328Y014348D01*
X001282Y014336D01*
X001234Y014327D01*
X001186Y014322D01*
X001138Y014321D01*
X001090Y014324D01*
X001042Y014331D01*
X000995Y014342D01*
X000949Y014356D01*
X000904Y014374D01*
X000861Y014396D01*
X000820Y014421D01*
X000782Y014450D01*
X000745Y014482D01*
X000711Y014516D01*
X000681Y014553D01*
X000653Y014592D01*
X000628Y014634D01*
X000608Y014678D01*
X000590Y014723D01*
X000577Y014769D01*
X000567Y014816D01*
X000561Y014864D01*
X000559Y014912D01*
X016756Y011512D02*
X016758Y011562D01*
X016764Y011612D01*
X016774Y011662D01*
X016787Y011710D01*
X016804Y011758D01*
X016825Y011804D01*
X016849Y011848D01*
X016877Y011890D01*
X016908Y011930D01*
X016942Y011967D01*
X016979Y012002D01*
X017018Y012033D01*
X017059Y012062D01*
X017103Y012087D01*
X017149Y012109D01*
X017196Y012127D01*
X017244Y012141D01*
X017293Y012152D01*
X017343Y012159D01*
X017393Y012162D01*
X017444Y012161D01*
X017494Y012156D01*
X017544Y012147D01*
X017592Y012135D01*
X017640Y012118D01*
X017686Y012098D01*
X017731Y012075D01*
X017774Y012048D01*
X017814Y012018D01*
X017852Y011985D01*
X017887Y011949D01*
X017920Y011910D01*
X017949Y011869D01*
X017975Y011826D01*
X017998Y011781D01*
X018017Y011734D01*
X018032Y011686D01*
X018044Y011637D01*
X018052Y011587D01*
X018056Y011537D01*
X018056Y011487D01*
X018052Y011437D01*
X018044Y011387D01*
X018032Y011338D01*
X018017Y011290D01*
X017998Y011243D01*
X017975Y011198D01*
X017949Y011155D01*
X017920Y011114D01*
X017887Y011075D01*
X017852Y011039D01*
X017814Y011006D01*
X017774Y010976D01*
X017731Y010949D01*
X017686Y010926D01*
X017640Y010906D01*
X017592Y010889D01*
X017544Y010877D01*
X017494Y010868D01*
X017444Y010863D01*
X017393Y010862D01*
X017343Y010865D01*
X017293Y010872D01*
X017244Y010883D01*
X017196Y010897D01*
X017149Y010915D01*
X017103Y010937D01*
X017059Y010962D01*
X017018Y010991D01*
X016979Y011022D01*
X016942Y011057D01*
X016908Y011094D01*
X016877Y011134D01*
X016849Y011176D01*
X016825Y011220D01*
X016804Y011266D01*
X016787Y011314D01*
X016774Y011362D01*
X016764Y011412D01*
X016758Y011462D01*
X016756Y011512D01*
X017559Y014912D02*
X017561Y014960D01*
X017567Y015008D01*
X017577Y015055D01*
X017590Y015101D01*
X017608Y015146D01*
X017628Y015190D01*
X017653Y015232D01*
X017681Y015271D01*
X017711Y015308D01*
X017745Y015342D01*
X017782Y015374D01*
X017820Y015403D01*
X017861Y015428D01*
X017904Y015450D01*
X017949Y015468D01*
X017995Y015482D01*
X018042Y015493D01*
X018090Y015500D01*
X018138Y015503D01*
X018186Y015502D01*
X018234Y015497D01*
X018282Y015488D01*
X018328Y015476D01*
X018373Y015459D01*
X018417Y015439D01*
X018459Y015416D01*
X018499Y015389D01*
X018537Y015359D01*
X018572Y015326D01*
X018604Y015290D01*
X018634Y015252D01*
X018660Y015211D01*
X018682Y015168D01*
X018702Y015124D01*
X018717Y015079D01*
X018729Y015032D01*
X018737Y014984D01*
X018741Y014936D01*
X018741Y014888D01*
X018737Y014840D01*
X018729Y014792D01*
X018717Y014745D01*
X018702Y014700D01*
X018682Y014656D01*
X018660Y014613D01*
X018634Y014572D01*
X018604Y014534D01*
X018572Y014498D01*
X018537Y014465D01*
X018499Y014435D01*
X018459Y014408D01*
X018417Y014385D01*
X018373Y014365D01*
X018328Y014348D01*
X018282Y014336D01*
X018234Y014327D01*
X018186Y014322D01*
X018138Y014321D01*
X018090Y014324D01*
X018042Y014331D01*
X017995Y014342D01*
X017949Y014356D01*
X017904Y014374D01*
X017861Y014396D01*
X017820Y014421D01*
X017782Y014450D01*
X017745Y014482D01*
X017711Y014516D01*
X017681Y014553D01*
X017653Y014592D01*
X017628Y014634D01*
X017608Y014678D01*
X017590Y014723D01*
X017577Y014769D01*
X017567Y014816D01*
X017561Y014864D01*
X017559Y014912D01*
X017559Y001150D02*
X017561Y001198D01*
X017567Y001246D01*
X017577Y001293D01*
X017590Y001339D01*
X017608Y001384D01*
X017628Y001428D01*
X017653Y001470D01*
X017681Y001509D01*
X017711Y001546D01*
X017745Y001580D01*
X017782Y001612D01*
X017820Y001641D01*
X017861Y001666D01*
X017904Y001688D01*
X017949Y001706D01*
X017995Y001720D01*
X018042Y001731D01*
X018090Y001738D01*
X018138Y001741D01*
X018186Y001740D01*
X018234Y001735D01*
X018282Y001726D01*
X018328Y001714D01*
X018373Y001697D01*
X018417Y001677D01*
X018459Y001654D01*
X018499Y001627D01*
X018537Y001597D01*
X018572Y001564D01*
X018604Y001528D01*
X018634Y001490D01*
X018660Y001449D01*
X018682Y001406D01*
X018702Y001362D01*
X018717Y001317D01*
X018729Y001270D01*
X018737Y001222D01*
X018741Y001174D01*
X018741Y001126D01*
X018737Y001078D01*
X018729Y001030D01*
X018717Y000983D01*
X018702Y000938D01*
X018682Y000894D01*
X018660Y000851D01*
X018634Y000810D01*
X018604Y000772D01*
X018572Y000736D01*
X018537Y000703D01*
X018499Y000673D01*
X018459Y000646D01*
X018417Y000623D01*
X018373Y000603D01*
X018328Y000586D01*
X018282Y000574D01*
X018234Y000565D01*
X018186Y000560D01*
X018138Y000559D01*
X018090Y000562D01*
X018042Y000569D01*
X017995Y000580D01*
X017949Y000594D01*
X017904Y000612D01*
X017861Y000634D01*
X017820Y000659D01*
X017782Y000688D01*
X017745Y000720D01*
X017711Y000754D01*
X017681Y000791D01*
X017653Y000830D01*
X017628Y000872D01*
X017608Y000916D01*
X017590Y000961D01*
X017577Y001007D01*
X017567Y001054D01*
X017561Y001102D01*
X017559Y001150D01*
D11*
X016357Y003150D02*
X016130Y003150D01*
X016243Y004087D02*
X016243Y004314D01*
X016130Y004200D02*
X016357Y004200D01*
X017475Y004730D02*
X017702Y004730D01*
X017843Y004730D02*
X018070Y004730D01*
X018212Y004730D02*
X018382Y004730D01*
X018439Y004787D01*
X018439Y005014D01*
X018382Y005070D01*
X018212Y005070D01*
X018212Y004730D01*
X017957Y004900D02*
X017843Y004900D01*
X017843Y005070D02*
X017843Y004730D01*
X017475Y004730D02*
X017475Y005070D01*
X017843Y005070D02*
X018070Y005070D01*
X016357Y006150D02*
X016130Y006150D01*
X016130Y006980D02*
X016130Y007320D01*
X016300Y007320D01*
X016357Y007264D01*
X016357Y007150D01*
X016300Y007093D01*
X016130Y007093D01*
X016230Y007980D02*
X016343Y008093D01*
X016343Y008320D01*
X016117Y008320D02*
X016117Y008093D01*
X016230Y007980D01*
X015975Y008037D02*
X015918Y007980D01*
X015805Y007980D01*
X015748Y008037D01*
X015748Y008150D02*
X015862Y008207D01*
X015918Y008207D01*
X015975Y008150D01*
X015975Y008037D01*
X015748Y008150D02*
X015748Y008320D01*
X015975Y008320D01*
X015607Y008150D02*
X015380Y008150D01*
X015493Y008037D02*
X015493Y008264D01*
X017406Y009462D02*
X017406Y009812D01*
X018006Y009812D01*
X018006Y009462D01*
X018756Y009462D01*
X018756Y013562D01*
X018006Y013562D01*
X018006Y013212D01*
X017406Y013212D01*
X017406Y013562D01*
X012506Y013562D01*
X012506Y009462D01*
X017406Y009462D01*
X017705Y009108D02*
X017875Y009108D01*
X017931Y009052D01*
X017931Y008938D01*
X017875Y008882D01*
X017705Y008882D01*
X017705Y008768D02*
X017705Y009108D01*
X018073Y008938D02*
X018073Y008825D01*
X018130Y008768D01*
X018243Y008768D01*
X018300Y008825D01*
X018300Y008938D01*
X018243Y008995D01*
X018130Y008995D01*
X018073Y008938D01*
X018441Y008995D02*
X018555Y008995D01*
X018498Y009052D02*
X018498Y008825D01*
X018555Y008768D01*
X016696Y011512D02*
X016698Y011565D01*
X016704Y011618D01*
X016714Y011670D01*
X016728Y011721D01*
X016745Y011771D01*
X016766Y011820D01*
X016791Y011867D01*
X016819Y011912D01*
X016851Y011955D01*
X016886Y011995D01*
X016923Y012032D01*
X016963Y012067D01*
X017006Y012099D01*
X017051Y012127D01*
X017098Y012152D01*
X017147Y012173D01*
X017197Y012190D01*
X017248Y012204D01*
X017300Y012214D01*
X017353Y012220D01*
X017406Y012222D01*
X017459Y012220D01*
X017512Y012214D01*
X017564Y012204D01*
X017615Y012190D01*
X017665Y012173D01*
X017714Y012152D01*
X017761Y012127D01*
X017806Y012099D01*
X017849Y012067D01*
X017889Y012032D01*
X017926Y011995D01*
X017961Y011955D01*
X017993Y011912D01*
X018021Y011867D01*
X018046Y011820D01*
X018067Y011771D01*
X018084Y011721D01*
X018098Y011670D01*
X018108Y011618D01*
X018114Y011565D01*
X018116Y011512D01*
X018114Y011459D01*
X018108Y011406D01*
X018098Y011354D01*
X018084Y011303D01*
X018067Y011253D01*
X018046Y011204D01*
X018021Y011157D01*
X017993Y011112D01*
X017961Y011069D01*
X017926Y011029D01*
X017889Y010992D01*
X017849Y010957D01*
X017806Y010925D01*
X017761Y010897D01*
X017714Y010872D01*
X017665Y010851D01*
X017615Y010834D01*
X017564Y010820D01*
X017512Y010810D01*
X017459Y010804D01*
X017406Y010802D01*
X017353Y010804D01*
X017300Y010810D01*
X017248Y010820D01*
X017197Y010834D01*
X017147Y010851D01*
X017098Y010872D01*
X017051Y010897D01*
X017006Y010925D01*
X016963Y010957D01*
X016923Y010992D01*
X016886Y011029D01*
X016851Y011069D01*
X016819Y011112D01*
X016791Y011157D01*
X016766Y011204D01*
X016745Y011253D01*
X016728Y011303D01*
X016714Y011354D01*
X016704Y011406D01*
X016698Y011459D01*
X016696Y011512D01*
X010800Y005650D02*
X010050Y005650D01*
X010048Y005611D01*
X010042Y005572D01*
X010033Y005534D01*
X010020Y005497D01*
X010003Y005461D01*
X009983Y005428D01*
X009959Y005396D01*
X009933Y005367D01*
X009904Y005341D01*
X009872Y005317D01*
X009839Y005297D01*
X009803Y005280D01*
X009766Y005267D01*
X009728Y005258D01*
X009689Y005252D01*
X009650Y005250D01*
X009611Y005252D01*
X009572Y005258D01*
X009534Y005267D01*
X009497Y005280D01*
X009461Y005297D01*
X009428Y005317D01*
X009396Y005341D01*
X009367Y005367D01*
X009341Y005396D01*
X009317Y005428D01*
X009297Y005461D01*
X009280Y005497D01*
X009267Y005534D01*
X009258Y005572D01*
X009252Y005611D01*
X009250Y005650D01*
X008500Y005650D01*
X008500Y001650D01*
X010800Y001650D01*
X010800Y005650D01*
X006700Y009980D02*
X006757Y010037D01*
X006757Y010150D01*
X006643Y010150D01*
X006530Y010037D02*
X006530Y010264D01*
X006587Y010320D01*
X006700Y010320D01*
X006757Y010264D01*
X006700Y009980D02*
X006587Y009980D01*
X006530Y010037D01*
X006530Y010980D02*
X006700Y010980D01*
X006757Y011037D01*
X006757Y011264D01*
X006700Y011320D01*
X006530Y011320D01*
X006530Y010980D01*
X006587Y011980D02*
X006530Y012037D01*
X006587Y011980D02*
X006700Y011980D01*
X006757Y012037D01*
X006757Y012093D01*
X006700Y012150D01*
X006587Y012150D01*
X006530Y012207D01*
X006530Y012264D01*
X006587Y012320D01*
X006700Y012320D01*
X006757Y012264D01*
X006695Y015161D02*
X006695Y015388D01*
X006695Y015275D02*
X006809Y015388D01*
X006865Y015388D01*
X007002Y015388D02*
X007116Y015161D01*
X007229Y015388D01*
X007371Y015388D02*
X007484Y015501D01*
X007484Y015161D01*
X007371Y015161D02*
X007597Y015161D01*
X007739Y015161D02*
X007966Y015161D01*
X007852Y015161D02*
X007852Y015501D01*
X007739Y015388D01*
X006554Y015331D02*
X006554Y015275D01*
X006327Y015275D01*
X006327Y015331D02*
X006384Y015388D01*
X006497Y015388D01*
X006554Y015331D01*
X006497Y015161D02*
X006384Y015161D01*
X006327Y015218D01*
X006327Y015331D01*
X006195Y015161D02*
X006081Y015161D01*
X006138Y015161D02*
X006138Y015501D01*
X006081Y015501D01*
X005893Y015501D02*
X005893Y015161D01*
X005949Y015161D02*
X005836Y015161D01*
X005694Y015218D02*
X005694Y015331D01*
X005638Y015388D01*
X005524Y015388D01*
X005468Y015331D01*
X005468Y015218D01*
X005524Y015161D01*
X005638Y015161D01*
X005694Y015218D01*
X005836Y015501D02*
X005893Y015501D01*
X005331Y015388D02*
X005274Y015388D01*
X005161Y015275D01*
X005161Y015388D02*
X005161Y015161D01*
X005029Y015161D02*
X004972Y015218D01*
X004972Y015445D01*
X004915Y015388D02*
X005029Y015388D01*
X004774Y015331D02*
X004774Y015161D01*
X004774Y015331D02*
X004717Y015388D01*
X004547Y015388D01*
X004547Y015161D01*
X004405Y015218D02*
X004405Y015331D01*
X004349Y015388D01*
X004235Y015388D01*
X004178Y015331D01*
X004178Y015218D01*
X004235Y015161D01*
X004349Y015161D01*
X004405Y015218D01*
X004037Y015218D02*
X003980Y015161D01*
X003867Y015161D01*
X003810Y015218D01*
X003810Y015445D01*
X003867Y015501D01*
X003980Y015501D01*
X004037Y015445D01*
X003669Y015331D02*
X003669Y015161D01*
X003669Y015331D02*
X003612Y015388D01*
X003442Y015388D01*
X003442Y015161D01*
X003300Y015161D02*
X003130Y015161D01*
X003074Y015218D01*
X003130Y015275D01*
X003300Y015275D01*
X003300Y015331D02*
X003300Y015161D01*
X003300Y015331D02*
X003244Y015388D01*
X003130Y015388D01*
X002932Y015501D02*
X002705Y015501D01*
X002705Y015161D01*
X002705Y015331D02*
X002819Y015331D01*
X002912Y012912D02*
X002912Y012685D01*
X002742Y012543D02*
X003083Y012543D01*
X002742Y012317D01*
X003083Y012317D01*
X003083Y012175D02*
X002856Y012175D01*
X002742Y012062D01*
X002856Y011948D01*
X003083Y011948D01*
X002912Y011948D02*
X002912Y012175D01*
X002742Y011807D02*
X002742Y011580D01*
X003083Y011580D01*
X002912Y011580D02*
X002912Y011693D01*
X002969Y010662D02*
X002742Y010662D01*
X002742Y010435D02*
X002969Y010435D01*
X003083Y010548D01*
X002969Y010662D01*
X002856Y010293D02*
X002799Y010293D01*
X002742Y010237D01*
X002742Y010123D01*
X002799Y010067D01*
X002742Y009812D02*
X003083Y009812D01*
X003083Y009925D02*
X003083Y009698D01*
X002912Y009557D02*
X002912Y009330D01*
X002799Y009443D02*
X003026Y009443D01*
X002856Y009698D02*
X002742Y009812D01*
X003083Y010067D02*
X002856Y010293D01*
X003083Y010293D02*
X003083Y010067D01*
X002969Y006412D02*
X002742Y006412D01*
X002742Y006185D02*
X002969Y006185D01*
X003083Y006298D01*
X002969Y006412D01*
X002856Y006043D02*
X002799Y006043D01*
X002742Y005987D01*
X002742Y005873D01*
X002799Y005817D01*
X002856Y006043D02*
X003083Y005817D01*
X003083Y006043D01*
X003083Y005675D02*
X003083Y005448D01*
X003083Y005562D02*
X002742Y005562D01*
X002856Y005448D01*
X002912Y005307D02*
X002912Y005080D01*
X002799Y005193D02*
X003026Y005193D01*
X002912Y003807D02*
X002912Y003580D01*
D12*
X002650Y002650D02*
X002650Y006650D01*
X000650Y006650D01*
X000650Y002650D01*
X002650Y002650D01*
X002650Y009150D02*
X000650Y009150D01*
X000650Y013150D01*
X002650Y013150D01*
X002650Y009150D01*
X005705Y014572D02*
X005750Y014572D01*
X005795Y014617D01*
X005795Y014843D01*
X005660Y014843D01*
X005615Y014798D01*
X005615Y014707D01*
X005660Y014662D01*
X005795Y014662D01*
X005501Y014662D02*
X005501Y014798D01*
X005456Y014843D01*
X005321Y014843D01*
X005321Y014662D01*
X005214Y014662D02*
X005124Y014662D01*
X005169Y014662D02*
X005169Y014843D01*
X005124Y014843D01*
X005169Y014933D02*
X005169Y014978D01*
X005014Y014843D02*
X004969Y014843D01*
X004879Y014752D01*
X004879Y014662D02*
X004879Y014843D01*
X004764Y014798D02*
X004764Y014662D01*
X004764Y014798D02*
X004719Y014843D01*
X004629Y014843D01*
X004584Y014798D01*
X004469Y014798D02*
X004424Y014843D01*
X004334Y014843D01*
X004289Y014798D01*
X004289Y014707D01*
X004334Y014662D01*
X004424Y014662D01*
X004469Y014707D01*
X004469Y014798D01*
X004584Y014933D02*
X004584Y014662D01*
X004175Y014662D02*
X004175Y014933D01*
X004085Y014843D01*
X003995Y014933D01*
X003995Y014662D01*
X003594Y014662D02*
X003504Y014662D01*
X003549Y014662D02*
X003549Y014933D01*
X003504Y014933D01*
X003393Y014843D02*
X003348Y014843D01*
X003258Y014752D01*
X003258Y014662D02*
X003258Y014843D01*
X003144Y014798D02*
X003144Y014662D01*
X003008Y014662D01*
X002963Y014707D01*
X003008Y014752D01*
X003144Y014752D01*
X003144Y014798D02*
X003098Y014843D01*
X003008Y014843D01*
X002849Y014933D02*
X002669Y014752D01*
X002714Y014798D02*
X002849Y014662D01*
X002669Y014662D02*
X002669Y014933D01*
X011419Y015169D02*
X011419Y015349D01*
X011554Y015349D01*
X011599Y015304D01*
X011599Y015169D01*
X011713Y015214D02*
X011713Y015304D01*
X011758Y015349D01*
X011848Y015349D01*
X011894Y015304D01*
X011894Y015214D01*
X011848Y015169D01*
X011758Y015169D01*
X011713Y015214D01*
X012008Y015349D02*
X012098Y015349D01*
X012053Y015394D02*
X012053Y015214D01*
X012098Y015169D01*
X012499Y015169D02*
X012634Y015169D01*
X012679Y015214D01*
X012634Y015259D01*
X012544Y015259D01*
X012499Y015304D01*
X012544Y015349D01*
X012679Y015349D01*
X012839Y015349D02*
X012929Y015349D01*
X012974Y015304D01*
X012974Y015169D01*
X012839Y015169D01*
X012794Y015214D01*
X012839Y015259D01*
X012974Y015259D01*
X013088Y015349D02*
X013178Y015169D01*
X013269Y015349D01*
X013383Y015304D02*
X013428Y015349D01*
X013518Y015349D01*
X013563Y015304D01*
X013563Y015259D01*
X013383Y015259D01*
X013383Y015214D02*
X013383Y015304D01*
X013383Y015214D02*
X013428Y015169D01*
X013518Y015169D01*
X013678Y015214D02*
X013678Y015304D01*
X013723Y015349D01*
X013858Y015349D01*
X013858Y015439D02*
X013858Y015169D01*
X013723Y015169D01*
X013678Y015214D01*
X013972Y015214D02*
X013972Y015169D01*
X013972Y015304D02*
X013972Y015484D01*
X016450Y008650D02*
X016450Y005650D01*
X018650Y005650D01*
X018650Y006150D01*
X018150Y006150D01*
X018150Y008150D01*
X018650Y008150D01*
X018650Y006150D01*
X018650Y004650D02*
X018650Y004150D01*
X018150Y004150D01*
X018150Y003150D01*
X018650Y003150D01*
X018650Y002650D01*
X016450Y002650D01*
X016450Y004650D01*
X018650Y004650D01*
X018650Y004150D02*
X018650Y003150D01*
X015341Y003470D02*
X015341Y003650D01*
X015296Y003695D01*
X015206Y003695D01*
X015161Y003650D01*
X015161Y003470D01*
X015206Y003425D01*
X015296Y003425D01*
X015341Y003470D01*
X015046Y003470D02*
X015001Y003425D01*
X014911Y003425D01*
X014866Y003470D01*
X014911Y003560D02*
X015001Y003560D01*
X015046Y003515D01*
X015046Y003470D01*
X014911Y003560D02*
X014866Y003605D01*
X014866Y003650D01*
X014911Y003695D01*
X015001Y003695D01*
X015046Y003650D01*
X014760Y003695D02*
X014670Y003695D01*
X014715Y003695D02*
X014715Y003425D01*
X014670Y003425D02*
X014760Y003425D01*
X014555Y003425D02*
X014555Y003695D01*
X014465Y003605D01*
X014375Y003695D01*
X014375Y003425D01*
X014044Y003545D02*
X013864Y003365D01*
X013909Y003410D02*
X014044Y003275D01*
X013864Y003275D02*
X013864Y003545D01*
X013750Y003500D02*
X013705Y003545D01*
X013615Y003545D01*
X013570Y003500D01*
X013570Y003320D01*
X013615Y003275D01*
X013705Y003275D01*
X013750Y003320D01*
X013455Y003320D02*
X013410Y003275D01*
X013320Y003275D01*
X013275Y003320D01*
X013320Y003410D02*
X013410Y003410D01*
X013455Y003365D01*
X013455Y003320D01*
X013320Y003410D02*
X013275Y003455D01*
X013275Y003500D01*
X013320Y003545D01*
X013410Y003545D01*
X013455Y003500D01*
X012944Y003545D02*
X012764Y003545D01*
X012854Y003545D02*
X012854Y003275D01*
X012650Y003320D02*
X012605Y003275D01*
X012515Y003275D01*
X012470Y003320D01*
X012515Y003410D02*
X012470Y003455D01*
X012470Y003500D01*
X012515Y003545D01*
X012605Y003545D01*
X012650Y003500D01*
X012605Y003410D02*
X012650Y003365D01*
X012650Y003320D01*
X012605Y003410D02*
X012515Y003410D01*
X012355Y003410D02*
X012310Y003365D01*
X012175Y003365D01*
X012175Y003275D02*
X012175Y003545D01*
X012310Y003545D01*
X012355Y003500D01*
X012355Y003410D01*
X012265Y003365D02*
X012355Y003275D01*
X012370Y000995D02*
X012550Y000725D01*
X012550Y000995D01*
X012664Y000995D02*
X012799Y000995D01*
X012844Y000950D01*
X012844Y000770D01*
X012799Y000725D01*
X012664Y000725D01*
X012664Y000995D01*
X012370Y000995D02*
X012370Y000725D01*
X012255Y000770D02*
X012255Y000860D01*
X012165Y000860D01*
X012075Y000770D02*
X012120Y000725D01*
X012210Y000725D01*
X012255Y000770D01*
X012075Y000770D02*
X012075Y000950D01*
X012120Y000995D01*
X012210Y000995D01*
X012255Y000950D01*
X013125Y000995D02*
X013125Y000725D01*
X013305Y000725D02*
X013305Y000995D01*
X013215Y000905D01*
X013125Y000995D01*
X013420Y000950D02*
X013420Y000770D01*
X013465Y000725D01*
X013555Y000725D01*
X013600Y000770D01*
X013600Y000950D01*
X013555Y000995D01*
X013465Y000995D01*
X013420Y000950D01*
X013714Y000950D02*
X013714Y000905D01*
X013759Y000860D01*
X013849Y000860D01*
X013894Y000815D01*
X013894Y000770D01*
X013849Y000725D01*
X013759Y000725D01*
X013714Y000770D01*
X013714Y000950D02*
X013759Y000995D01*
X013849Y000995D01*
X013894Y000950D01*
X014009Y000995D02*
X014099Y000995D01*
X014054Y000995D02*
X014054Y000725D01*
X014009Y000725D02*
X014099Y000725D01*
X014325Y000860D02*
X014505Y000860D01*
X014620Y000860D02*
X014620Y000995D01*
X014800Y000995D01*
X014755Y000905D02*
X014800Y000860D01*
X014800Y000770D01*
X014755Y000725D01*
X014665Y000725D01*
X014620Y000770D01*
X014620Y000860D02*
X014710Y000905D01*
X014755Y000905D01*
X014914Y000995D02*
X014914Y000815D01*
X015004Y000725D01*
X015094Y000815D01*
X015094Y000995D01*
X014415Y000950D02*
X014415Y000770D01*
X018650Y008150D02*
X018650Y008650D01*
X016450Y008650D01*
D13*
X007150Y008650D02*
X007152Y008727D01*
X007158Y008804D01*
X007168Y008881D01*
X007182Y008957D01*
X007199Y009032D01*
X007221Y009106D01*
X007246Y009179D01*
X007276Y009251D01*
X007308Y009321D01*
X007345Y009389D01*
X007384Y009455D01*
X007427Y009519D01*
X007474Y009581D01*
X007523Y009640D01*
X007576Y009697D01*
X007631Y009751D01*
X007689Y009802D01*
X007750Y009850D01*
X007813Y009895D01*
X007878Y009936D01*
X007945Y009974D01*
X008014Y010009D01*
X008085Y010039D01*
X008157Y010067D01*
X008231Y010090D01*
X008305Y010110D01*
X008381Y010126D01*
X008457Y010138D01*
X008534Y010146D01*
X008611Y010150D01*
X008689Y010150D01*
X008766Y010146D01*
X008843Y010138D01*
X008919Y010126D01*
X008995Y010110D01*
X009069Y010090D01*
X009143Y010067D01*
X009215Y010039D01*
X009286Y010009D01*
X009355Y009974D01*
X009422Y009936D01*
X009487Y009895D01*
X009550Y009850D01*
X009611Y009802D01*
X009669Y009751D01*
X009724Y009697D01*
X009777Y009640D01*
X009826Y009581D01*
X009873Y009519D01*
X009916Y009455D01*
X009955Y009389D01*
X009992Y009321D01*
X010024Y009251D01*
X010054Y009179D01*
X010079Y009106D01*
X010101Y009032D01*
X010118Y008957D01*
X010132Y008881D01*
X010142Y008804D01*
X010148Y008727D01*
X010150Y008650D01*
X010148Y008573D01*
X010142Y008496D01*
X010132Y008419D01*
X010118Y008343D01*
X010101Y008268D01*
X010079Y008194D01*
X010054Y008121D01*
X010024Y008049D01*
X009992Y007979D01*
X009955Y007911D01*
X009916Y007845D01*
X009873Y007781D01*
X009826Y007719D01*
X009777Y007660D01*
X009724Y007603D01*
X009669Y007549D01*
X009611Y007498D01*
X009550Y007450D01*
X009487Y007405D01*
X009422Y007364D01*
X009355Y007326D01*
X009286Y007291D01*
X009215Y007261D01*
X009143Y007233D01*
X009069Y007210D01*
X008995Y007190D01*
X008919Y007174D01*
X008843Y007162D01*
X008766Y007154D01*
X008689Y007150D01*
X008611Y007150D01*
X008534Y007154D01*
X008457Y007162D01*
X008381Y007174D01*
X008305Y007190D01*
X008231Y007210D01*
X008157Y007233D01*
X008085Y007261D01*
X008014Y007291D01*
X007945Y007326D01*
X007878Y007364D01*
X007813Y007405D01*
X007750Y007450D01*
X007689Y007498D01*
X007631Y007549D01*
X007576Y007603D01*
X007523Y007660D01*
X007474Y007719D01*
X007427Y007781D01*
X007384Y007845D01*
X007345Y007911D01*
X007308Y007979D01*
X007276Y008049D01*
X007246Y008121D01*
X007221Y008194D01*
X007199Y008268D01*
X007182Y008343D01*
X007168Y008419D01*
X007158Y008496D01*
X007152Y008573D01*
X007150Y008650D01*
X007150Y012650D02*
X007152Y012727D01*
X007158Y012804D01*
X007168Y012881D01*
X007182Y012957D01*
X007199Y013032D01*
X007221Y013106D01*
X007246Y013179D01*
X007276Y013251D01*
X007308Y013321D01*
X007345Y013389D01*
X007384Y013455D01*
X007427Y013519D01*
X007474Y013581D01*
X007523Y013640D01*
X007576Y013697D01*
X007631Y013751D01*
X007689Y013802D01*
X007750Y013850D01*
X007813Y013895D01*
X007878Y013936D01*
X007945Y013974D01*
X008014Y014009D01*
X008085Y014039D01*
X008157Y014067D01*
X008231Y014090D01*
X008305Y014110D01*
X008381Y014126D01*
X008457Y014138D01*
X008534Y014146D01*
X008611Y014150D01*
X008689Y014150D01*
X008766Y014146D01*
X008843Y014138D01*
X008919Y014126D01*
X008995Y014110D01*
X009069Y014090D01*
X009143Y014067D01*
X009215Y014039D01*
X009286Y014009D01*
X009355Y013974D01*
X009422Y013936D01*
X009487Y013895D01*
X009550Y013850D01*
X009611Y013802D01*
X009669Y013751D01*
X009724Y013697D01*
X009777Y013640D01*
X009826Y013581D01*
X009873Y013519D01*
X009916Y013455D01*
X009955Y013389D01*
X009992Y013321D01*
X010024Y013251D01*
X010054Y013179D01*
X010079Y013106D01*
X010101Y013032D01*
X010118Y012957D01*
X010132Y012881D01*
X010142Y012804D01*
X010148Y012727D01*
X010150Y012650D01*
X010148Y012573D01*
X010142Y012496D01*
X010132Y012419D01*
X010118Y012343D01*
X010101Y012268D01*
X010079Y012194D01*
X010054Y012121D01*
X010024Y012049D01*
X009992Y011979D01*
X009955Y011911D01*
X009916Y011845D01*
X009873Y011781D01*
X009826Y011719D01*
X009777Y011660D01*
X009724Y011603D01*
X009669Y011549D01*
X009611Y011498D01*
X009550Y011450D01*
X009487Y011405D01*
X009422Y011364D01*
X009355Y011326D01*
X009286Y011291D01*
X009215Y011261D01*
X009143Y011233D01*
X009069Y011210D01*
X008995Y011190D01*
X008919Y011174D01*
X008843Y011162D01*
X008766Y011154D01*
X008689Y011150D01*
X008611Y011150D01*
X008534Y011154D01*
X008457Y011162D01*
X008381Y011174D01*
X008305Y011190D01*
X008231Y011210D01*
X008157Y011233D01*
X008085Y011261D01*
X008014Y011291D01*
X007945Y011326D01*
X007878Y011364D01*
X007813Y011405D01*
X007750Y011450D01*
X007689Y011498D01*
X007631Y011549D01*
X007576Y011603D01*
X007523Y011660D01*
X007474Y011719D01*
X007427Y011781D01*
X007384Y011845D01*
X007345Y011911D01*
X007308Y011979D01*
X007276Y012049D01*
X007246Y012121D01*
X007221Y012194D01*
X007199Y012268D01*
X007182Y012343D01*
X007168Y012419D01*
X007158Y012496D01*
X007152Y012573D01*
X007150Y012650D01*
D14*
X012756Y013312D02*
X012756Y009712D01*
X016006Y009712D01*
X016006Y013312D01*
X012756Y013312D01*
D15*
X013008Y013776D02*
X013008Y013836D01*
X013248Y014077D01*
X013248Y014137D01*
X013008Y014137D01*
X013058Y014276D02*
X013178Y014276D01*
X013118Y014276D02*
X013118Y014637D01*
X013058Y014637D02*
X013178Y014637D01*
X013303Y014577D02*
X013303Y014336D01*
X013363Y014276D01*
X013483Y014276D01*
X013544Y014336D01*
X013672Y014276D02*
X013912Y014276D01*
X013792Y014276D02*
X013792Y014637D01*
X013672Y014517D01*
X013544Y014577D02*
X013483Y014637D01*
X013363Y014637D01*
X013303Y014577D01*
X013436Y014137D02*
X013556Y014137D01*
X013616Y014077D01*
X013616Y014017D01*
X013556Y013956D01*
X013436Y013956D01*
X013376Y014017D01*
X013376Y014077D01*
X013436Y014137D01*
X013436Y013956D02*
X013376Y013896D01*
X013376Y013836D01*
X013436Y013776D01*
X013556Y013776D01*
X013616Y013836D01*
X013616Y013896D01*
X013556Y013956D01*
X013744Y013836D02*
X013804Y013776D01*
X013925Y013776D01*
X013985Y013836D01*
X013985Y014077D01*
X013744Y013836D01*
X013744Y014077D01*
X013804Y014137D01*
X013925Y014137D01*
X013985Y014077D01*
X014113Y014137D02*
X014113Y013956D01*
X014233Y014017D01*
X014293Y014017D01*
X014353Y013956D01*
X014353Y013836D01*
X014293Y013776D01*
X014173Y013776D01*
X014113Y013836D01*
X014113Y014137D02*
X014353Y014137D01*
X016243Y013098D02*
X016301Y013157D01*
X016476Y013157D01*
X016476Y013040D02*
X016301Y013040D01*
X016243Y013098D01*
X016301Y013040D02*
X016243Y012981D01*
X016243Y012923D01*
X016476Y012923D01*
X016476Y012798D02*
X016301Y012798D01*
X016243Y012739D01*
X016301Y012681D01*
X016476Y012681D01*
X016476Y012564D02*
X016243Y012564D01*
X016243Y012622D01*
X016301Y012681D01*
X016243Y012438D02*
X016184Y012438D01*
X016126Y012380D01*
X016126Y012263D01*
X016184Y012205D01*
X016243Y012438D02*
X016476Y012205D01*
X016476Y012438D01*
X016476Y012082D02*
X016476Y012024D01*
X016418Y012024D01*
X016418Y012082D01*
X016476Y012082D01*
X016593Y011965D01*
X016418Y011840D02*
X016476Y011782D01*
X016476Y011665D01*
X016418Y011606D01*
X016301Y011606D02*
X016243Y011723D01*
X016243Y011782D01*
X016301Y011840D01*
X016418Y011840D01*
X016301Y011606D02*
X016126Y011606D01*
X016126Y011840D01*
X016476Y011481D02*
X016476Y011247D01*
X016476Y011364D02*
X016126Y011364D01*
X016243Y011247D01*
X016243Y011122D02*
X016476Y011122D01*
X016301Y011122D02*
X016301Y010888D01*
X016243Y010888D02*
X016126Y011005D01*
X016243Y011122D01*
X016243Y010888D02*
X016476Y010888D01*
X009130Y005112D02*
X008770Y005112D01*
X008770Y005292D01*
X008830Y005352D01*
X008950Y005352D01*
X009010Y005292D01*
X009010Y005112D01*
X008950Y004984D02*
X008950Y004744D01*
X008950Y004616D02*
X009070Y004616D01*
X009130Y004556D01*
X009130Y004435D01*
X009070Y004375D01*
X008950Y004375D02*
X008890Y004496D01*
X008890Y004556D01*
X008950Y004616D01*
X008770Y004616D02*
X008770Y004375D01*
X008950Y004375D01*
X009010Y004247D02*
X009070Y004247D01*
X009130Y004187D01*
X009130Y004067D01*
X009070Y004007D01*
X009010Y004007D01*
X008950Y004067D01*
X008950Y004187D01*
X009010Y004247D01*
X008950Y004187D02*
X008890Y004247D01*
X008830Y004247D01*
X008770Y004187D01*
X008770Y004067D01*
X008830Y004007D01*
X008890Y004007D01*
X008950Y004067D01*
X008830Y003879D02*
X008770Y003879D01*
X008830Y003879D02*
X008950Y003759D01*
X009130Y003759D01*
X008950Y003759D02*
X008830Y003639D01*
X008770Y003639D01*
X008770Y003511D02*
X009130Y003511D01*
X008770Y003270D01*
X009130Y003270D01*
X009130Y003145D02*
X009130Y003025D01*
X009130Y003085D02*
X008770Y003085D01*
X008770Y003025D02*
X008770Y003145D01*
X008770Y002897D02*
X008770Y002657D01*
X008770Y002777D02*
X009130Y002777D01*
X009130Y002408D02*
X008770Y002408D01*
X008770Y002288D02*
X008770Y002529D01*
X008890Y002160D02*
X009130Y002160D01*
X008950Y002160D02*
X008950Y001920D01*
X008890Y001920D02*
X008770Y002040D01*
X008890Y002160D01*
X008890Y001920D02*
X009130Y001920D01*
X009920Y003183D02*
X010220Y003183D01*
X010280Y003243D01*
X010280Y003364D01*
X010220Y003424D01*
X009920Y003424D01*
X010040Y003552D02*
X009920Y003672D01*
X010280Y003672D01*
X010280Y003552D02*
X010280Y003792D01*
X004180Y009370D02*
X003820Y009370D01*
X003820Y009610D01*
X003880Y009738D02*
X003820Y009798D01*
X003820Y009918D01*
X003880Y009979D01*
X004120Y009979D01*
X004180Y009918D01*
X004180Y009798D01*
X004120Y009738D01*
X003880Y009738D01*
X004060Y009858D02*
X004180Y009979D01*
X004180Y010107D02*
X003820Y010107D01*
X003820Y010287D01*
X003880Y010347D01*
X004000Y010347D01*
X004060Y010287D01*
X004060Y010107D01*
X004120Y010475D02*
X004180Y010535D01*
X004180Y010655D01*
X004120Y010715D01*
X004060Y010715D01*
X004000Y010655D01*
X004000Y010595D01*
X004000Y010655D02*
X003940Y010715D01*
X003880Y010715D01*
X003820Y010655D01*
X003820Y010535D01*
X003880Y010475D01*
X003880Y010843D02*
X003820Y010903D01*
X003820Y011023D01*
X003880Y011083D01*
X004120Y010843D01*
X004180Y010903D01*
X004180Y011023D01*
X004120Y011083D01*
X003880Y011083D01*
X003820Y011212D02*
X004180Y011452D01*
X003820Y011452D01*
X003880Y011580D02*
X003820Y011640D01*
X003820Y011760D01*
X003880Y011820D01*
X004120Y011580D01*
X004180Y011640D01*
X004180Y011760D01*
X004120Y011820D01*
X003880Y011820D01*
X004000Y011948D02*
X004000Y012128D01*
X004060Y012188D01*
X004120Y012188D01*
X004180Y012128D01*
X004180Y012008D01*
X004120Y011948D01*
X004000Y011948D01*
X003880Y012068D01*
X003820Y012188D01*
X003820Y012317D02*
X004180Y012317D01*
X004180Y012557D01*
X004593Y013420D02*
X004533Y013480D01*
X004533Y013720D01*
X004593Y013780D01*
X004714Y013780D01*
X004774Y013720D01*
X004774Y013480D01*
X004714Y013420D01*
X004593Y013420D01*
X004653Y013540D02*
X004774Y013420D01*
X004902Y013420D02*
X005142Y013420D01*
X005022Y013420D02*
X005022Y013780D01*
X004902Y013660D01*
X004120Y011580D02*
X003880Y011580D01*
X003820Y011212D02*
X004180Y011212D01*
X004120Y010843D02*
X003880Y010843D01*
X004000Y009490D02*
X004000Y009370D01*
X000854Y002455D02*
X000624Y002455D01*
X000624Y001995D01*
X000854Y001995D01*
X000931Y002072D01*
X000931Y002148D01*
X000854Y002225D01*
X000624Y002225D01*
X000854Y002225D02*
X000931Y002302D01*
X000931Y002378D01*
X000854Y002455D01*
X001161Y002302D02*
X001315Y002302D01*
X001392Y002225D01*
X001392Y001995D01*
X001161Y001995D01*
X001085Y002072D01*
X001161Y002148D01*
X001392Y002148D01*
X001545Y002302D02*
X001698Y002302D01*
X001622Y002378D02*
X001622Y002072D01*
X001698Y001995D01*
X001929Y002072D02*
X001929Y002378D01*
X002005Y002302D02*
X001852Y002302D01*
X001929Y002072D02*
X002005Y001995D01*
X002159Y002072D02*
X002159Y002225D01*
X002236Y002302D01*
X002389Y002302D01*
X002466Y002225D01*
X002466Y002148D01*
X002159Y002148D01*
X002159Y002072D02*
X002236Y001995D01*
X002389Y001995D01*
X002619Y001995D02*
X002619Y002302D01*
X002619Y002148D02*
X002773Y002302D01*
X002849Y002302D01*
X003003Y002302D02*
X003003Y002072D01*
X003080Y001995D01*
X003310Y001995D01*
X003310Y001918D02*
X003233Y001841D01*
X003156Y001841D01*
X003310Y001918D02*
X003310Y002302D01*
D16*
X012331Y010512D03*
X012331Y011512D03*
X012331Y012512D03*
D17*
X008900Y012650D02*
X008400Y012650D01*
X006150Y012650D02*
X006150Y012800D01*
X006149Y012834D01*
X006145Y012869D01*
X006137Y012902D01*
X006126Y012935D01*
X006111Y012966D01*
X006094Y012996D01*
X006073Y013024D01*
X006050Y013050D01*
X006024Y013073D01*
X005996Y013094D01*
X005966Y013111D01*
X005935Y013126D01*
X005902Y013137D01*
X005869Y013145D01*
X005834Y013149D01*
X005800Y013150D01*
X004850Y013150D01*
X004450Y013150D01*
X004450Y009150D01*
X004850Y009150D01*
X004850Y013150D01*
X006150Y009650D02*
X006150Y009500D01*
X006149Y009466D01*
X006145Y009431D01*
X006137Y009398D01*
X006126Y009365D01*
X006111Y009334D01*
X006094Y009304D01*
X006073Y009276D01*
X006050Y009250D01*
X006024Y009227D01*
X005996Y009206D01*
X005966Y009189D01*
X005935Y009174D01*
X005902Y009163D01*
X005869Y009155D01*
X005834Y009151D01*
X005800Y009150D01*
X004850Y009150D01*
X004150Y006250D02*
X004150Y006150D01*
X004450Y006150D01*
X004450Y004150D01*
X004150Y004150D01*
X004150Y004050D01*
X004150Y004150D02*
X003850Y004150D01*
X003850Y006150D01*
X004150Y006150D01*
X006100Y006150D02*
X006400Y006150D01*
X006400Y006250D01*
X006400Y006150D02*
X006700Y006150D01*
X006700Y004150D01*
X006400Y004150D01*
X006400Y004050D01*
X006400Y004150D02*
X006100Y004150D01*
X006100Y006150D01*
X006150Y005900D02*
X006650Y005900D01*
X004400Y004400D02*
X003900Y004400D01*
X008650Y008400D02*
X008650Y008900D01*
X012150Y007150D02*
X013150Y007150D01*
X014150Y007150D01*
X013150Y007150D02*
X013150Y006900D01*
X013150Y007150D02*
X013150Y007400D01*
X013150Y004950D02*
X015150Y004950D01*
X015150Y004650D01*
X015250Y004650D01*
X015150Y004650D02*
X015150Y004350D01*
X013150Y004350D01*
X013150Y004650D01*
X013050Y004650D01*
X013150Y004650D02*
X013150Y004950D01*
X014400Y003282D02*
X014900Y003282D01*
X014900Y003150D02*
X014400Y003150D01*
X014150Y002900D01*
X014150Y001400D01*
X013900Y001150D01*
X013400Y001150D01*
X013150Y001400D01*
X013150Y002900D01*
X012900Y003150D01*
X012400Y003150D01*
X012150Y002900D01*
X012150Y001400D01*
X012400Y001150D01*
X012900Y001150D01*
X013150Y001400D01*
X014150Y001400D02*
X014400Y001150D01*
X014900Y001150D01*
X015150Y001400D01*
X015150Y002900D01*
X014900Y003150D01*
X014150Y002900D02*
X013900Y003150D01*
X013400Y003150D01*
X013150Y002900D01*
D18*
X004650Y011150D03*
D19*
X001749Y008694D02*
X001749Y008509D01*
X001749Y008694D02*
X001687Y008756D01*
X001502Y008756D01*
X001502Y008509D01*
X001380Y008509D02*
X001195Y008509D01*
X001133Y008571D01*
X001195Y008633D01*
X001380Y008633D01*
X001380Y008694D02*
X001380Y008509D01*
X001380Y008694D02*
X001318Y008756D01*
X001195Y008756D01*
X001012Y008879D02*
X000765Y008879D01*
X000765Y008509D01*
X000765Y008694D02*
X000888Y008694D01*
X003965Y005815D02*
X004110Y005670D01*
X004110Y005864D01*
X004255Y005815D02*
X003965Y005815D01*
X004013Y005569D02*
X004207Y005376D01*
X004255Y005424D01*
X004255Y005521D01*
X004207Y005569D01*
X004013Y005569D01*
X003965Y005521D01*
X003965Y005424D01*
X004013Y005376D01*
X004207Y005376D01*
X004207Y005275D02*
X004013Y005275D01*
X004207Y005081D01*
X004255Y005129D01*
X004255Y005226D01*
X004207Y005275D01*
X004013Y005275D02*
X003965Y005226D01*
X003965Y005129D01*
X004013Y005081D01*
X004207Y005081D01*
X004110Y004980D02*
X004110Y004786D01*
X003965Y004932D01*
X004255Y004932D01*
X004255Y004685D02*
X003965Y004685D01*
X003965Y004492D02*
X004255Y004685D01*
X004255Y004492D02*
X003965Y004492D01*
X003965Y004294D02*
X004255Y004294D01*
X004255Y004197D02*
X004255Y004391D01*
X004062Y004197D02*
X003965Y004294D01*
X004665Y004205D02*
X005035Y004205D01*
X005035Y004452D01*
X005035Y004697D02*
X004850Y004697D01*
X004726Y004820D01*
X004665Y004820D01*
X004665Y004942D02*
X004665Y005127D01*
X004726Y005189D01*
X004788Y005189D01*
X004850Y005127D01*
X004850Y004942D01*
X004850Y005127D02*
X004912Y005189D01*
X004973Y005189D01*
X005035Y005127D01*
X005035Y004942D01*
X004665Y004942D01*
X004850Y004697D02*
X004726Y004573D01*
X004665Y004573D01*
X004665Y004084D02*
X004665Y003837D01*
X005035Y003837D01*
X004850Y003837D02*
X004850Y003960D01*
X006295Y004462D02*
X006585Y004462D01*
X006585Y004558D02*
X006585Y004365D01*
X006392Y004365D02*
X006295Y004462D01*
X006295Y004660D02*
X006585Y004853D01*
X006295Y004853D01*
X006440Y004954D02*
X006295Y005099D01*
X006585Y005099D01*
X006440Y005148D02*
X006440Y004954D01*
X006585Y004660D02*
X006295Y004660D01*
X006805Y004662D02*
X006805Y004552D01*
X006860Y004496D01*
X006860Y004385D02*
X006805Y004330D01*
X006805Y004165D01*
X007135Y004165D01*
X007135Y004330D01*
X007080Y004385D01*
X006860Y004385D01*
X006805Y004662D02*
X006860Y004717D01*
X006915Y004717D01*
X007135Y004496D01*
X007135Y004717D01*
X006585Y005297D02*
X006537Y005249D01*
X006343Y005442D01*
X006537Y005442D01*
X006585Y005394D01*
X006585Y005297D01*
X006537Y005249D02*
X006343Y005249D01*
X006295Y005297D01*
X006295Y005394D01*
X006343Y005442D01*
X006343Y005544D02*
X006295Y005592D01*
X006295Y005689D01*
X006343Y005737D01*
X006537Y005544D01*
X006585Y005592D01*
X006585Y005689D01*
X006537Y005737D01*
X006343Y005737D01*
X006392Y005838D02*
X006295Y005935D01*
X006585Y005935D01*
X006585Y005838D02*
X006585Y006032D01*
X006537Y005544D02*
X006343Y005544D01*
X005035Y005557D02*
X004788Y005557D01*
X004665Y005433D01*
X004788Y005310D01*
X005035Y005310D01*
X004850Y005310D02*
X004850Y005557D01*
X004973Y005678D02*
X004726Y005678D01*
X004665Y005740D01*
X004665Y005864D01*
X004726Y005925D01*
X004665Y006047D02*
X005035Y006047D01*
X004912Y006047D02*
X004665Y006294D01*
X004850Y006108D02*
X005035Y006294D01*
X004973Y005925D02*
X005035Y005864D01*
X005035Y005740D01*
X004973Y005678D01*
X007876Y007893D02*
X007924Y007845D01*
X008021Y007845D01*
X008069Y007893D01*
X008170Y007893D02*
X008219Y007845D01*
X008315Y007845D01*
X008364Y007893D01*
X008364Y007942D01*
X008315Y007990D01*
X008267Y007990D01*
X008315Y007990D02*
X008364Y008038D01*
X008364Y008087D01*
X008315Y008135D01*
X008219Y008135D01*
X008170Y008087D01*
X008069Y008087D02*
X008021Y008135D01*
X007924Y008135D01*
X007876Y008087D01*
X007876Y007893D01*
X008134Y009195D02*
X008134Y009485D01*
X007989Y009340D01*
X008183Y009340D01*
X008284Y009243D02*
X008332Y009243D01*
X008332Y009195D01*
X008284Y009195D01*
X008284Y009243D01*
X008431Y009243D02*
X008431Y009195D01*
X008431Y009243D02*
X008625Y009437D01*
X008625Y009485D01*
X008431Y009485D01*
X008726Y009388D02*
X008726Y009243D01*
X008774Y009195D01*
X008919Y009195D01*
X008919Y009388D01*
X009020Y009340D02*
X009117Y009340D01*
X009020Y009195D02*
X009020Y009485D01*
X009214Y009485D01*
X013365Y007907D02*
X013365Y007713D01*
X013413Y007665D01*
X013510Y007665D01*
X013558Y007713D01*
X013660Y007665D02*
X013853Y007858D01*
X013853Y007907D01*
X013805Y007955D01*
X013708Y007955D01*
X013660Y007907D01*
X013558Y007907D02*
X013510Y007955D01*
X013413Y007955D01*
X013365Y007907D01*
X013660Y007665D02*
X013853Y007665D01*
X013804Y006605D02*
X013804Y006315D01*
X013900Y006315D02*
X013707Y006315D01*
X013608Y006315D02*
X013560Y006315D01*
X013560Y006363D01*
X013608Y006363D01*
X013608Y006315D01*
X013458Y006363D02*
X013410Y006315D01*
X013313Y006315D01*
X013265Y006363D01*
X013458Y006557D01*
X013458Y006363D01*
X013265Y006363D02*
X013265Y006557D01*
X013313Y006605D01*
X013410Y006605D01*
X013458Y006557D01*
X013707Y006508D02*
X013804Y006605D01*
X014002Y006508D02*
X014002Y006363D01*
X014050Y006315D01*
X014195Y006315D01*
X014195Y006508D01*
X014296Y006460D02*
X014393Y006460D01*
X014296Y006315D02*
X014296Y006605D01*
X014490Y006605D01*
X014575Y005385D02*
X014381Y005385D01*
X014232Y005385D02*
X014086Y005240D01*
X014280Y005240D01*
X014381Y005143D02*
X014381Y005095D01*
X014381Y005143D02*
X014575Y005337D01*
X014575Y005385D01*
X014676Y005337D02*
X014676Y005143D01*
X014869Y005337D01*
X014869Y005143D01*
X014821Y005095D01*
X014724Y005095D01*
X014676Y005143D01*
X014676Y005337D02*
X014724Y005385D01*
X014821Y005385D01*
X014869Y005337D01*
X014970Y005385D02*
X015115Y005385D01*
X015164Y005337D01*
X015164Y005240D01*
X015115Y005192D01*
X014970Y005192D01*
X014970Y005095D02*
X014970Y005385D01*
X015067Y005192D02*
X015164Y005095D01*
X014232Y005095D02*
X014232Y005385D01*
X013653Y005115D02*
X013460Y005115D01*
X013556Y005115D02*
X013556Y005405D01*
X013460Y005308D01*
X013358Y005260D02*
X013310Y005212D01*
X013165Y005212D01*
X013262Y005212D02*
X013358Y005115D01*
X013358Y005260D02*
X013358Y005357D01*
X013310Y005405D01*
X013165Y005405D01*
X013165Y005115D01*
X015393Y002734D02*
X015490Y002734D01*
X015538Y002685D01*
X015538Y002540D01*
X015635Y002540D02*
X015345Y002540D01*
X015345Y002685D01*
X015393Y002734D01*
X015393Y002439D02*
X015345Y002391D01*
X015345Y002294D01*
X015393Y002245D01*
X015442Y002245D01*
X015490Y002294D01*
X015490Y002391D01*
X015538Y002439D01*
X015587Y002439D01*
X015635Y002391D01*
X015635Y002294D01*
X015587Y002245D01*
X015635Y002146D02*
X015635Y002049D01*
X015635Y002097D02*
X015345Y002097D01*
X015345Y002049D02*
X015345Y002146D01*
X015393Y001948D02*
X015490Y001948D01*
X015538Y001899D01*
X015538Y001754D01*
X015635Y001754D02*
X015345Y001754D01*
X015345Y001899D01*
X015393Y001948D01*
X015538Y001851D02*
X015635Y001948D01*
X015538Y001653D02*
X015345Y001653D01*
X015538Y001653D02*
X015635Y001556D01*
X015538Y001460D01*
X015345Y001460D01*
X015442Y001358D02*
X015635Y001358D01*
X015490Y001358D02*
X015490Y001165D01*
X015442Y001165D02*
X015345Y001262D01*
X015442Y001358D01*
X015442Y001165D02*
X015635Y001165D01*
X010614Y013345D02*
X010420Y013345D01*
X010517Y013345D02*
X010517Y013635D01*
X010420Y013538D01*
X010319Y013587D02*
X010271Y013635D01*
X010174Y013635D01*
X010126Y013587D01*
X010126Y013393D01*
X010174Y013345D01*
X010271Y013345D01*
X010319Y013393D01*
X010374Y013845D02*
X010326Y013893D01*
X010326Y014038D01*
X010225Y014038D02*
X010176Y013990D01*
X010225Y013942D01*
X010225Y013893D01*
X010176Y013845D01*
X010079Y013845D01*
X010031Y013893D01*
X009930Y013893D02*
X009882Y013845D01*
X009785Y013845D01*
X009736Y013893D01*
X009833Y013990D02*
X009882Y013990D01*
X009930Y013942D01*
X009930Y013893D01*
X009882Y013990D02*
X009930Y014038D01*
X009930Y014087D01*
X009882Y014135D01*
X009785Y014135D01*
X009736Y014087D01*
X010031Y014087D02*
X010079Y014135D01*
X010176Y014135D01*
X010225Y014087D01*
X010225Y014038D01*
X010176Y013990D02*
X010128Y013990D01*
X010374Y013845D02*
X010519Y013845D01*
X010519Y014038D01*
X010620Y013990D02*
X010717Y013990D01*
X010620Y013845D02*
X010620Y014135D01*
X010814Y014135D01*
M02*
