G75*
G70*
%OFA0B0*%
%FSLAX24Y24*%
%IPPOS*%
%LPD*%
%AMOC8*
5,1,8,0,0,1.08239X$1,22.5*
%
%ADD10C,0.0000*%
D10*
X000150Y000544D02*
X000544Y000150D01*
X018654Y000150D01*
X019048Y000544D01*
X019048Y015504D01*
X018654Y015898D01*
X000544Y015898D01*
X000150Y015504D01*
X000150Y000544D01*
X000559Y001150D02*
X000561Y001198D01*
X000567Y001246D01*
X000577Y001293D01*
X000590Y001339D01*
X000608Y001384D01*
X000628Y001428D01*
X000653Y001470D01*
X000681Y001509D01*
X000711Y001546D01*
X000745Y001580D01*
X000782Y001612D01*
X000820Y001641D01*
X000861Y001666D01*
X000904Y001688D01*
X000949Y001706D01*
X000995Y001720D01*
X001042Y001731D01*
X001090Y001738D01*
X001138Y001741D01*
X001186Y001740D01*
X001234Y001735D01*
X001282Y001726D01*
X001328Y001714D01*
X001373Y001697D01*
X001417Y001677D01*
X001459Y001654D01*
X001499Y001627D01*
X001537Y001597D01*
X001572Y001564D01*
X001604Y001528D01*
X001634Y001490D01*
X001660Y001449D01*
X001682Y001406D01*
X001702Y001362D01*
X001717Y001317D01*
X001729Y001270D01*
X001737Y001222D01*
X001741Y001174D01*
X001741Y001126D01*
X001737Y001078D01*
X001729Y001030D01*
X001717Y000983D01*
X001702Y000938D01*
X001682Y000894D01*
X001660Y000851D01*
X001634Y000810D01*
X001604Y000772D01*
X001572Y000736D01*
X001537Y000703D01*
X001499Y000673D01*
X001459Y000646D01*
X001417Y000623D01*
X001373Y000603D01*
X001328Y000586D01*
X001282Y000574D01*
X001234Y000565D01*
X001186Y000560D01*
X001138Y000559D01*
X001090Y000562D01*
X001042Y000569D01*
X000995Y000580D01*
X000949Y000594D01*
X000904Y000612D01*
X000861Y000634D01*
X000820Y000659D01*
X000782Y000688D01*
X000745Y000720D01*
X000711Y000754D01*
X000681Y000791D01*
X000653Y000830D01*
X000628Y000872D01*
X000608Y000916D01*
X000590Y000961D01*
X000577Y001007D01*
X000567Y001054D01*
X000561Y001102D01*
X000559Y001150D01*
X000559Y014912D02*
X000561Y014960D01*
X000567Y015008D01*
X000577Y015055D01*
X000590Y015101D01*
X000608Y015146D01*
X000628Y015190D01*
X000653Y015232D01*
X000681Y015271D01*
X000711Y015308D01*
X000745Y015342D01*
X000782Y015374D01*
X000820Y015403D01*
X000861Y015428D01*
X000904Y015450D01*
X000949Y015468D01*
X000995Y015482D01*
X001042Y015493D01*
X001090Y015500D01*
X001138Y015503D01*
X001186Y015502D01*
X001234Y015497D01*
X001282Y015488D01*
X001328Y015476D01*
X001373Y015459D01*
X001417Y015439D01*
X001459Y015416D01*
X001499Y015389D01*
X001537Y015359D01*
X001572Y015326D01*
X001604Y015290D01*
X001634Y015252D01*
X001660Y015211D01*
X001682Y015168D01*
X001702Y015124D01*
X001717Y015079D01*
X001729Y015032D01*
X001737Y014984D01*
X001741Y014936D01*
X001741Y014888D01*
X001737Y014840D01*
X001729Y014792D01*
X001717Y014745D01*
X001702Y014700D01*
X001682Y014656D01*
X001660Y014613D01*
X001634Y014572D01*
X001604Y014534D01*
X001572Y014498D01*
X001537Y014465D01*
X001499Y014435D01*
X001459Y014408D01*
X001417Y014385D01*
X001373Y014365D01*
X001328Y014348D01*
X001282Y014336D01*
X001234Y014327D01*
X001186Y014322D01*
X001138Y014321D01*
X001090Y014324D01*
X001042Y014331D01*
X000995Y014342D01*
X000949Y014356D01*
X000904Y014374D01*
X000861Y014396D01*
X000820Y014421D01*
X000782Y014450D01*
X000745Y014482D01*
X000711Y014516D01*
X000681Y014553D01*
X000653Y014592D01*
X000628Y014634D01*
X000608Y014678D01*
X000590Y014723D01*
X000577Y014769D01*
X000567Y014816D01*
X000561Y014864D01*
X000559Y014912D01*
X016756Y011512D02*
X016758Y011562D01*
X016764Y011612D01*
X016774Y011662D01*
X016787Y011710D01*
X016804Y011758D01*
X016825Y011804D01*
X016849Y011848D01*
X016877Y011890D01*
X016908Y011930D01*
X016942Y011967D01*
X016979Y012002D01*
X017018Y012033D01*
X017059Y012062D01*
X017103Y012087D01*
X017149Y012109D01*
X017196Y012127D01*
X017244Y012141D01*
X017293Y012152D01*
X017343Y012159D01*
X017393Y012162D01*
X017444Y012161D01*
X017494Y012156D01*
X017544Y012147D01*
X017592Y012135D01*
X017640Y012118D01*
X017686Y012098D01*
X017731Y012075D01*
X017774Y012048D01*
X017814Y012018D01*
X017852Y011985D01*
X017887Y011949D01*
X017920Y011910D01*
X017949Y011869D01*
X017975Y011826D01*
X017998Y011781D01*
X018017Y011734D01*
X018032Y011686D01*
X018044Y011637D01*
X018052Y011587D01*
X018056Y011537D01*
X018056Y011487D01*
X018052Y011437D01*
X018044Y011387D01*
X018032Y011338D01*
X018017Y011290D01*
X017998Y011243D01*
X017975Y011198D01*
X017949Y011155D01*
X017920Y011114D01*
X017887Y011075D01*
X017852Y011039D01*
X017814Y011006D01*
X017774Y010976D01*
X017731Y010949D01*
X017686Y010926D01*
X017640Y010906D01*
X017592Y010889D01*
X017544Y010877D01*
X017494Y010868D01*
X017444Y010863D01*
X017393Y010862D01*
X017343Y010865D01*
X017293Y010872D01*
X017244Y010883D01*
X017196Y010897D01*
X017149Y010915D01*
X017103Y010937D01*
X017059Y010962D01*
X017018Y010991D01*
X016979Y011022D01*
X016942Y011057D01*
X016908Y011094D01*
X016877Y011134D01*
X016849Y011176D01*
X016825Y011220D01*
X016804Y011266D01*
X016787Y011314D01*
X016774Y011362D01*
X016764Y011412D01*
X016758Y011462D01*
X016756Y011512D01*
X017559Y014912D02*
X017561Y014960D01*
X017567Y015008D01*
X017577Y015055D01*
X017590Y015101D01*
X017608Y015146D01*
X017628Y015190D01*
X017653Y015232D01*
X017681Y015271D01*
X017711Y015308D01*
X017745Y015342D01*
X017782Y015374D01*
X017820Y015403D01*
X017861Y015428D01*
X017904Y015450D01*
X017949Y015468D01*
X017995Y015482D01*
X018042Y015493D01*
X018090Y015500D01*
X018138Y015503D01*
X018186Y015502D01*
X018234Y015497D01*
X018282Y015488D01*
X018328Y015476D01*
X018373Y015459D01*
X018417Y015439D01*
X018459Y015416D01*
X018499Y015389D01*
X018537Y015359D01*
X018572Y015326D01*
X018604Y015290D01*
X018634Y015252D01*
X018660Y015211D01*
X018682Y015168D01*
X018702Y015124D01*
X018717Y015079D01*
X018729Y015032D01*
X018737Y014984D01*
X018741Y014936D01*
X018741Y014888D01*
X018737Y014840D01*
X018729Y014792D01*
X018717Y014745D01*
X018702Y014700D01*
X018682Y014656D01*
X018660Y014613D01*
X018634Y014572D01*
X018604Y014534D01*
X018572Y014498D01*
X018537Y014465D01*
X018499Y014435D01*
X018459Y014408D01*
X018417Y014385D01*
X018373Y014365D01*
X018328Y014348D01*
X018282Y014336D01*
X018234Y014327D01*
X018186Y014322D01*
X018138Y014321D01*
X018090Y014324D01*
X018042Y014331D01*
X017995Y014342D01*
X017949Y014356D01*
X017904Y014374D01*
X017861Y014396D01*
X017820Y014421D01*
X017782Y014450D01*
X017745Y014482D01*
X017711Y014516D01*
X017681Y014553D01*
X017653Y014592D01*
X017628Y014634D01*
X017608Y014678D01*
X017590Y014723D01*
X017577Y014769D01*
X017567Y014816D01*
X017561Y014864D01*
X017559Y014912D01*
X017559Y001150D02*
X017561Y001198D01*
X017567Y001246D01*
X017577Y001293D01*
X017590Y001339D01*
X017608Y001384D01*
X017628Y001428D01*
X017653Y001470D01*
X017681Y001509D01*
X017711Y001546D01*
X017745Y001580D01*
X017782Y001612D01*
X017820Y001641D01*
X017861Y001666D01*
X017904Y001688D01*
X017949Y001706D01*
X017995Y001720D01*
X018042Y001731D01*
X018090Y001738D01*
X018138Y001741D01*
X018186Y001740D01*
X018234Y001735D01*
X018282Y001726D01*
X018328Y001714D01*
X018373Y001697D01*
X018417Y001677D01*
X018459Y001654D01*
X018499Y001627D01*
X018537Y001597D01*
X018572Y001564D01*
X018604Y001528D01*
X018634Y001490D01*
X018660Y001449D01*
X018682Y001406D01*
X018702Y001362D01*
X018717Y001317D01*
X018729Y001270D01*
X018737Y001222D01*
X018741Y001174D01*
X018741Y001126D01*
X018737Y001078D01*
X018729Y001030D01*
X018717Y000983D01*
X018702Y000938D01*
X018682Y000894D01*
X018660Y000851D01*
X018634Y000810D01*
X018604Y000772D01*
X018572Y000736D01*
X018537Y000703D01*
X018499Y000673D01*
X018459Y000646D01*
X018417Y000623D01*
X018373Y000603D01*
X018328Y000586D01*
X018282Y000574D01*
X018234Y000565D01*
X018186Y000560D01*
X018138Y000559D01*
X018090Y000562D01*
X018042Y000569D01*
X017995Y000580D01*
X017949Y000594D01*
X017904Y000612D01*
X017861Y000634D01*
X017820Y000659D01*
X017782Y000688D01*
X017745Y000720D01*
X017711Y000754D01*
X017681Y000791D01*
X017653Y000830D01*
X017628Y000872D01*
X017608Y000916D01*
X017590Y000961D01*
X017577Y001007D01*
X017567Y001054D01*
X017561Y001102D01*
X017559Y001150D01*
M02*
