%
M48
M72
T01C0.0276
T02C0.0320
T03C0.0354
T04C0.0400
T05C0.0810
T06C0.1181
T07C0.1300
%
T01
X8650Y12150
X8650Y13150
X9150Y8650
X8150Y8650
T02
X8150Y5150
X8150Y4150
X11150Y4150
X11150Y5150
X8150Y3150
X8150Y2150
X11150Y3150
X11150Y2150
T03
X11250Y7150
X14950Y7150
X4150Y6650
X4150Y3650
X15650Y4650
X12650Y4650
X6400Y3650
X6400Y6650
T04
X11506Y12512
X11506Y11512
X11506Y10512
X5650Y10150
X5650Y11150
X5650Y12150
X17650Y6150
X17650Y7150
X17650Y8150
X14650Y2650
X14650Y1650
X13650Y2650
X13650Y1650
X12650Y2650
X12650Y1650
X17650Y3150
X17650Y4150
T05
X1650Y3650
X1650Y5650
X1650Y12150
X1650Y10150
T06
X1150Y14912
X1150Y1150
X18150Y1150
X18150Y14912
T07
X17406Y11512
M30
